<svg xmlns="http://www.w3.org/2000/svg" width="512" height="512"><path d="M173.89 129c-84.52.24-156.47 64.56-167.33 128.07l32.3-.3c21.3-63.17 89.71-108.68 158.55-96.48 34.37 8.36 34.64 33.8 35.35 61.86-20.5.4-41.66-2.1-60.58-.42-53.4 8.2-88.7 26.17-89.65 81.53 1.35 42.74 33.14 75.18 71.8 75.71 43.52-.22 73.92-19.3 98.96-48.52l9-160.15c-23.12-34.2-43.65-41.7-88.4-41.3zm56.37 123.53c.26 19.08 2.04 38.05 8.1 55-28.72 22.83-74.52 48.91-105.8 23.07-14.33-15.7-15.76-42.2-1.95-56.79 27.89-27.65 66.82-20.2 99.65-21.28zM6.5 256.98c1.63 123.46 91.74 243.64 243.22 248.67 123.52 4.1 257.06-98.64 256.24-254.06l-.07.03c-22.95 145.4-165.38 219.98-255.2 219.66C131.1 471 38.95 377.43 38.95 256.76z" fill="#ce222c"/><path d="M253.34 7.76C139.27 7.82 6.58 100.23 6.56 257.06 39.06 110.08 131.58 48.9 250.21 40.65c128.36 4.24 220.6 118.22 225.09 211.9l30.66-.95C504.26 115.7 391.02 7.7 253.34 7.76zm88.44 121.05c-32.05 1.37-58.17 16.2-79.5 40.03L252.84 330c27.58 28.48 66.86 43.99 101.32 44.22 78.92 0 138.36-57.4 151.73-122.6l-30.54.84c-17.74 64.25-71.28 91.64-121.96 94.2-48.99-1.84-81.8-32.44-79.86-95.45l161.48.85c.18-32.66-6.1-70.78-24.38-94.3-15.77-19.23-38.64-28.95-68.85-28.95zm.93 30.16c39.06 1.83 55.17 27.44 59.23 61.77H276.27c5.85-36.5 32.22-61.25 66.44-61.77z" fill="#6ab32f"/></svg>